<svg width="59" height="59" viewBox="0 0 59 59" fill="none" xmlns="http://www.w3.org/2000/svg">
<path d="M44.25 19.6667C44.25 15.7547 42.696 12.003 39.9298 9.23686C37.1637 6.4707 33.4119 4.91669 29.5 4.91669C25.5881 4.91669 21.8363 6.4707 19.0702 9.23686C16.304 12.003 14.75 15.7547 14.75 19.6667C14.75 36.875 7.375 41.7917 7.375 41.7917H51.625C51.625 41.7917 44.25 36.875 44.25 19.6667Z" stroke="#FE6550" stroke-width="4.91667" stroke-linecap="round" stroke-linejoin="round"/>
<path d="M33.7529 51.625C33.3207 52.3701 32.7003 52.9885 31.954 53.4184C31.2076 53.8483 30.3613 54.0746 29.5 54.0746C28.6386 54.0746 27.7924 53.8483 27.046 53.4184C26.2996 52.9885 25.6793 52.3701 25.2471 51.625" stroke="#FE6550" stroke-width="4.91667" stroke-linecap="round" stroke-linejoin="round"/>
</svg>
