<svg width="59" height="59" viewBox="0 0 59 59" fill="none" xmlns="http://www.w3.org/2000/svg">
<path d="M49.1665 17.2083H9.83317C7.11777 17.2083 4.9165 19.4096 4.9165 22.125V46.7083C4.9165 49.4237 7.11777 51.625 9.83317 51.625H49.1665C51.8819 51.625 54.0832 49.4237 54.0832 46.7083V22.125C54.0832 19.4096 51.8819 17.2083 49.1665 17.2083Z" stroke="#FE6550" stroke-width="4.91667" stroke-linecap="round" stroke-linejoin="round"/>
<path d="M39.3332 51.625V12.2917C39.3332 10.9877 38.8152 9.73711 37.8931 8.81506C36.9711 7.893 35.7205 7.375 34.4165 7.375H24.5832C23.2792 7.375 22.0286 7.893 21.1066 8.81506C20.1845 9.73711 19.6665 10.9877 19.6665 12.2917V51.625" stroke="#FE6550" stroke-width="4.91667" stroke-linecap="round" stroke-linejoin="round"/>
</svg>
