<svg width="32" height="32" viewBox="0 0 32 32" fill="none" xmlns="http://www.w3.org/2000/svg">
<g clip-path="url(#clip0_1_1623)">
<path d="M30.6352 1.2002H8.80578C8.05266 1.2002 7.44141 1.8077 7.44141 2.55645V8.6002L20.0927 12.3002L31.9995 8.6002V2.55645C31.9995 1.80707 31.3889 1.2002 30.6352 1.2002Z" fill="#41A5EE"/>
<path d="M31.9995 8.59961H7.44141V15.9996L20.0927 18.2196L31.9995 15.9996V8.59961Z" fill="#2B7CD3"/>
<path d="M7.44141 16V23.4L19.3483 24.88L31.9995 23.4V16H7.44141Z" fill="#185ABD"/>
<path d="M8.80578 30.8004H30.6358C31.3889 30.8004 32.0002 30.1929 32.0002 29.4441V23.4004H7.44141V29.4441C7.44141 30.1935 8.05203 30.8004 8.80578 30.8004Z" fill="#103F91"/>
<path opacity="0.1" d="M16.4958 7.12012H7.44141V25.6201H16.4958C17.2483 25.6176 17.8577 25.012 17.8602 24.2639V8.47637C17.8577 7.72824 17.2483 7.12262 16.4958 7.12012Z" fill="black"/>
<path opacity="0.2" d="M15.752 7.85986H7.44141V26.3599H15.752C16.5045 26.3574 17.1139 25.7517 17.1164 25.0036V9.21611C17.1133 8.46799 16.5039 7.86236 15.752 7.85986Z" fill="black"/>
<path opacity="0.2" d="M15.752 7.85986H7.44141V24.8799H15.752C16.5045 24.8774 17.1139 24.2717 17.1164 23.5236V9.21611C17.1133 8.46799 16.5039 7.86236 15.752 7.85986Z" fill="black"/>
<path opacity="0.2" d="M15.0077 7.85986H7.44141V24.8799H15.0077C15.7602 24.8774 16.3695 24.2717 16.372 23.5236V9.21611C16.3689 8.46799 15.7602 7.86236 15.0077 7.85986Z" fill="black"/>
<path d="M1.36437 7.85986H15.0081C15.7613 7.85986 16.3725 8.46736 16.3725 9.21611V22.7836C16.3725 23.533 15.7619 24.1399 15.0081 24.1399H1.36437C0.610625 24.1399 0 23.5324 0 22.7836V9.21611C0 8.46736 0.610625 7.85986 1.36437 7.85986Z" fill="url(#paint0_linear_1_1623)"/>
<path d="M5.59695 18.2635C5.62383 18.4729 5.64133 18.6548 5.65008 18.811H5.68133C5.6932 18.6629 5.7182 18.4848 5.7557 18.276C5.7932 18.0673 5.82758 17.891 5.85758 17.7466L7.29258 11.591H9.14758L10.6357 17.6541C10.722 18.031 10.7838 18.4135 10.8207 18.7979H10.8451C10.8726 18.4248 10.9245 18.0541 11.0001 17.6879L12.187 11.5879H13.8757L11.7907 20.4085H9.8182L8.40445 14.5666C8.36383 14.3985 8.31695 14.1791 8.26508 13.9085C8.2132 13.6379 8.18195 13.441 8.16883 13.3166H8.14445C8.1282 13.4604 8.09633 13.6735 8.0482 13.956C8.0007 14.2385 7.96258 14.4479 7.93383 14.5835L6.60445 20.4066H4.5982L2.50195 11.5916H4.2207L5.5132 17.7598C5.5432 17.886 5.5707 18.0548 5.59695 18.2635Z" fill="white"/>
</g>
<defs>
<linearGradient id="paint0_linear_1_1623" x1="2.86364" y1="6.78164" x2="13.5085" y2="25.2181" gradientUnits="userSpaceOnUse">
<stop stop-color="#2368C4"/>
<stop offset="0.5" stop-color="#1A5DBE"/>
<stop offset="1" stop-color="#1146AC"/>
</linearGradient>
<clipPath id="clip0_1_1623">
<rect width="32" height="32" fill="white"/>
</clipPath>
</defs>
</svg>
