<svg width="83" height="47" viewBox="0 0 83 47" fill="none" xmlns="http://www.w3.org/2000/svg">
<path d="M41.8191 44.5814H37.6977V44.2179C37.9557 44.2177 38.2126 44.1836 38.4617 44.1166C38.576 44.0699 38.6332 44.0102 38.6332 43.9323C38.6246 43.8632 38.6035 43.7964 38.5709 43.7349C38.5202 43.6276 38.4629 43.5236 38.3993 43.4234C38.2902 43.2364 38.1395 43.0028 37.955 42.7223L37.3755 41.8551C36.7103 42.6341 36.2867 43.1378 36.1074 43.3896C35.9844 43.5371 35.8956 43.71 35.8475 43.8959C35.8456 43.9342 35.8527 43.9725 35.8683 44.0076C35.8938 44.0494 35.9335 44.0807 35.9801 44.0958C36.0522 44.1308 36.1294 44.1545 36.2087 44.1659C36.3346 44.1924 36.4623 44.2098 36.5907 44.2179V44.5814H33.9688V44.2179C34.078 44.2127 34.1866 44.1988 34.2936 44.1763C34.376 44.1554 34.4567 44.1285 34.5352 44.0958C34.7092 44.0092 34.8688 43.8963 35.0082 43.7609C35.1652 43.6166 35.3136 43.4631 35.4525 43.3013C35.6734 43.0417 35.9255 42.7821 36.2035 42.4497C36.4816 42.1174 36.7752 41.7928 37.0845 41.4371C36.7934 40.9957 36.4998 40.5673 36.2087 40.1519L35.4655 39.09C35.355 38.9307 35.2278 38.7836 35.0861 38.6512C34.9512 38.5164 34.7903 38.4104 34.6132 38.3396C34.5232 38.3016 34.4302 38.2712 34.3352 38.2487C34.2142 38.2244 34.0918 38.2079 33.9688 38.1994V37.8281H38.0979V38.1994C37.8582 38.2032 37.6196 38.232 37.3859 38.2851C37.2326 38.3318 37.1546 38.3967 37.1546 38.485C37.1586 38.5436 37.1735 38.6008 37.1988 38.6538C37.2525 38.7644 37.3123 38.8719 37.3781 38.9757C37.4561 39.103 37.5756 39.2873 37.7341 39.5314L38.2798 40.3648C38.8775 39.6508 39.2543 39.1834 39.4102 38.9679C39.5208 38.8403 39.5992 38.6881 39.6389 38.524C39.64 38.4801 39.6279 38.4369 39.6043 38.3999C39.5807 38.3629 39.5466 38.3338 39.5063 38.3162C39.3057 38.2489 39.0967 38.2095 38.8853 38.1994V37.8281H41.5177V38.1994C41.4255 38.2073 41.3343 38.2229 41.2448 38.2461C41.156 38.2699 41.0692 38.3003 40.9849 38.337C40.8025 38.4164 40.6354 38.5271 40.4912 38.6642C40.3561 38.7966 40.2106 38.9472 40.0521 39.1211C39.8156 39.3808 39.5921 39.6404 39.379 39.8819L38.5994 40.7854C38.984 41.3618 39.3115 41.8474 39.5843 42.2368L40.3639 43.3351C40.4712 43.4939 40.5948 43.6409 40.7329 43.7739C40.8665 43.9103 41.0265 44.0181 41.2032 44.0906C41.288 44.123 41.3748 44.1499 41.4631 44.1711C41.5909 44.2016 41.7215 44.219 41.8529 44.2231V44.5814H41.8191Z" fill="#979797"/>
<path d="M48.3777 38.5809C48.7147 38.8907 48.9844 39.2662 49.1702 39.6844C49.3723 40.1503 49.4724 40.654 49.4639 41.1618C49.4656 41.64 49.382 42.1148 49.217 42.5638C49.0619 42.9921 48.8184 43.3831 48.5024 43.7114C48.1733 44.0449 47.7811 44.3097 47.3486 44.4903C46.8464 44.6862 46.3103 44.7807 45.7713 44.7682C45.2963 44.7711 44.8246 44.6893 44.3784 44.5267C43.9496 44.3693 43.5558 44.1293 43.2195 43.8205C42.8862 43.5123 42.6208 43.1383 42.4399 42.7222C42.2407 42.2673 42.1414 41.775 42.1488 41.2786C42.1414 40.7644 42.2377 40.254 42.4321 39.7779C42.6048 39.3469 42.8657 38.9569 43.1982 38.6327C43.5307 38.3085 43.9274 38.0574 44.3628 37.8955C44.8226 37.7243 45.3092 37.6363 45.7999 37.6358C46.2846 37.6325 46.766 37.716 47.2213 37.8825C47.646 38.0364 48.0369 38.271 48.3725 38.5731L48.3777 38.5809ZM47.1537 43.4154C47.3034 43.1048 47.4075 42.7743 47.463 42.434C47.531 42.0239 47.5632 41.6086 47.5591 41.1929C47.5606 40.815 47.5345 40.4376 47.4811 40.0635C47.4331 39.7211 47.3369 39.3871 47.1953 39.0716C47.0739 38.8003 46.8884 38.5624 46.6548 38.3784C46.4112 38.1981 46.1132 38.1064 45.8103 38.1188C45.5381 38.1168 45.2711 38.1928 45.0408 38.3377C44.8105 38.4827 44.6267 38.6905 44.511 38.9366C44.2147 39.4845 44.064 40.253 44.064 41.2474C44.0618 41.6484 44.094 42.0489 44.1601 42.4444C44.2145 42.7849 44.3187 43.1156 44.4694 43.4258C44.5929 43.6865 44.7785 43.9129 45.0099 44.0853C45.2518 44.2403 45.5332 44.3227 45.8206 44.3227C46.1081 44.3227 46.3895 44.2403 46.6314 44.0853C46.8636 43.9176 47.0488 43.6933 47.1693 43.4336L47.1537 43.4154Z" fill="#979797"/>
<path d="M51.8985 38.2591L51.558 38.1994V37.8281H57.6153V38.1994C57.5002 38.2058 57.3856 38.2197 57.2723 38.241C57.1572 38.2591 57.0435 38.2851 56.9319 38.3188C56.8796 38.3327 56.8308 38.3575 56.7887 38.3915C56.7466 38.4255 56.7122 38.468 56.6876 38.5162C56.6454 38.6063 56.624 38.7048 56.6253 38.8044V43.5869C56.6224 43.6875 56.6438 43.7872 56.6876 43.8777C56.7431 43.9709 56.8295 44.0417 56.9319 44.0777C57.0387 44.1174 57.1493 44.1461 57.2619 44.1633C57.3786 44.1884 57.4966 44.2066 57.6153 44.2179V44.5814H53.9461V44.2179L54.3047 44.1893C54.4144 44.1864 54.523 44.1671 54.627 44.1322C54.7265 44.0993 54.8124 44.0345 54.8712 43.9478C54.9183 43.8547 54.9407 43.751 54.9362 43.6467V38.2903H53.3225C53.2993 39.2776 53.1844 40.2607 52.9795 41.2268C52.8374 41.9153 52.6122 42.584 52.309 43.2183C52.1033 43.6639 51.8057 44.0611 51.4359 44.384C51.1954 44.5939 50.8919 44.7181 50.5732 44.7371C50.3955 44.7427 50.2186 44.7118 50.0534 44.6463C49.9343 44.5983 49.8283 44.5227 49.7442 44.4256C49.6703 44.3389 49.6186 44.2355 49.5935 44.1244C49.569 44.0232 49.5559 43.9195 49.5545 43.8154C49.5462 43.6858 49.5671 43.5561 49.6156 43.4356C49.6642 43.3152 49.7392 43.2072 49.8352 43.1196C50.0156 42.9622 50.2479 42.8771 50.4874 42.8807C50.669 42.8829 50.8453 42.9419 50.9915 43.0495C51.1708 43.1785 51.3331 43.3294 51.4749 43.4987C51.6192 43.2576 51.7468 43.0068 51.8569 42.7483C52.0024 42.42 52.124 42.0816 52.2207 41.7357C52.3411 41.3388 52.4366 40.9347 52.5065 40.5258C52.5808 40.084 52.6155 39.6366 52.6105 39.1886C52.6159 39.0139 52.5975 38.8392 52.5559 38.6694C52.5405 38.6036 52.5103 38.5423 52.4675 38.4901C52.4247 38.4379 52.3705 38.3962 52.309 38.3682C52.1791 38.3179 52.044 38.2822 51.9062 38.2617L51.8985 38.2591Z" fill="#979797"/>
<path d="M67.5663 44.5814H63.9023V44.2179C64.0114 44.2179 64.144 44.2023 64.2999 44.1711C64.4102 44.1624 64.5187 44.1379 64.6221 44.0984C64.7279 44.0655 64.8195 43.9978 64.882 43.9063C64.9366 43.81 64.9627 43.7001 64.9573 43.5895V38.5369L62.6264 44.4775H62.0339C62.0053 44.3737 61.9326 44.1659 61.8208 43.857C61.7091 43.548 61.6181 43.2935 61.561 43.1066L59.8511 38.4668V42.5692C59.8424 42.8706 59.8685 43.1721 59.929 43.4675C59.9665 43.6407 60.0574 43.7978 60.1889 43.9167C60.3181 44.0055 60.4626 44.0697 60.6151 44.1062C60.7556 44.1533 60.8999 44.188 61.0464 44.2101V44.5814H58.1152V44.2179C58.1958 44.2179 58.3231 44.1867 58.5024 44.153C58.6609 44.1306 58.8121 44.0719 58.9442 43.9816C59.0868 43.872 59.1802 43.7106 59.204 43.5324C59.2582 43.2344 59.2817 42.9317 59.2742 42.6289V39.2847C59.2806 39.1083 59.2541 38.9322 59.1962 38.7654C59.1516 38.6396 59.0724 38.5289 58.9676 38.4461C58.8541 38.3531 58.7207 38.2873 58.5778 38.2539C58.4441 38.2258 58.3087 38.2067 58.1724 38.1968V37.8281H61.2907L62.9564 42.2784L64.3622 38.6668C64.4153 38.5108 64.4604 38.3522 64.4974 38.1916C64.5313 38.0726 64.5556 37.951 64.5701 37.8281H67.5637V38.1994C67.4519 38.2073 67.3407 38.2229 67.2311 38.2461C67.123 38.2642 67.0162 38.2893 66.9115 38.3214C66.8593 38.3349 66.8106 38.3591 66.7685 38.3927C66.7264 38.4263 66.6919 38.4683 66.6672 38.5162C66.627 38.6096 66.6066 38.7104 66.6074 38.8122V43.5869C66.605 43.6872 66.6254 43.7866 66.6672 43.8777C66.7251 43.9688 66.8107 44.0389 66.9115 44.0777C67.0119 44.1166 67.1165 44.1436 67.2233 44.1582C67.3688 44.1841 67.4831 44.2023 67.5611 44.2101V44.5814H67.5663Z" fill="#979797"/>
<path d="M71.8055 44.7681C71.3313 44.7717 70.8604 44.6899 70.4152 44.5267C69.9947 44.3749 69.6106 44.137 69.2875 43.8282C68.9589 43.518 68.701 43.1408 68.5313 42.7222C68.1693 41.7866 68.1693 40.7498 68.5313 39.8142C68.7086 39.3779 68.974 38.9829 69.3108 38.6536C69.6422 38.3263 70.0389 38.0724 70.475 37.9084C70.9405 37.7317 71.4349 37.6437 71.9328 37.6488C72.279 37.6438 72.6241 37.6902 72.9567 37.7864C73.226 37.8638 73.4871 37.9673 73.7362 38.0954L74.0325 37.8357H74.4457L74.4898 40.3023H74.0689C73.908 39.693 73.6162 39.126 73.2139 38.6406C73.0593 38.4726 72.8707 38.3393 72.6605 38.2498C72.4504 38.1603 72.2236 38.1165 71.9952 38.1214C71.7172 38.1134 71.4426 38.1834 71.2024 38.3233C70.9622 38.4633 70.7661 38.6676 70.6361 38.9133C70.3243 39.4325 70.1684 40.1699 70.1684 41.1254C70.1586 41.5893 70.2128 42.0523 70.3295 42.5015C70.4118 42.8303 70.5527 43.1416 70.7453 43.4206C70.9159 43.6454 71.1401 43.8239 71.3975 43.9399C71.6592 44.0557 71.9429 44.1133 72.2291 44.1087C72.6529 44.1152 73.0682 43.989 73.4166 43.7478C73.809 43.456 74.1327 43.0821 74.3651 42.6521L74.7757 42.9117C74.6473 43.178 74.4905 43.4296 74.3079 43.6621C74.1377 43.8761 73.9362 44.0634 73.7103 44.2177C73.4549 44.3948 73.1747 44.533 72.8787 44.6279C72.531 44.7332 72.1688 44.7831 71.8055 44.7759V44.7681Z" fill="#979797"/>
<path d="M82.821 44.5814H80.2224C80.1106 44.2542 80.0015 43.9271 79.8898 43.6025C79.778 43.278 79.6611 42.9716 79.5363 42.6912C79.4606 42.5129 79.3738 42.3395 79.2765 42.1719C79.1919 42.0308 79.0828 41.9059 78.9543 41.8032C78.8254 41.6988 78.677 41.6211 78.5177 41.5747C78.3216 41.5247 78.1198 41.5011 77.9174 41.5046V43.5818C77.9148 43.6829 77.9381 43.7829 77.985 43.8726C78.0381 43.9647 78.1218 44.0354 78.2215 44.0725C78.3218 44.1089 78.4253 44.1358 78.5307 44.153C78.6492 44.1768 78.7689 44.1942 78.8893 44.2049V44.5814H75.2383V44.2179C75.3162 44.2179 75.4332 44.2075 75.5891 44.1867C75.7032 44.1796 75.8158 44.1578 75.9243 44.1218C76.0252 44.0928 76.1109 44.0258 76.1634 43.9349C76.2088 43.843 76.2311 43.7414 76.2283 43.6389V38.8537C76.2327 38.7567 76.2121 38.6601 76.1686 38.5733C76.1103 38.482 76.0249 38.4112 75.9243 38.3708C75.8073 38.3235 75.6864 38.2861 75.5631 38.2591C75.4124 38.228 75.3032 38.2072 75.2383 38.1994V37.8307H78.8919V38.1994C78.7932 38.1994 78.6762 38.2228 78.5385 38.2462C78.4008 38.2695 78.2968 38.2981 78.2241 38.3189C78.1712 38.3324 78.122 38.3573 78.0798 38.3918C78.0376 38.4264 78.0035 38.4697 77.9798 38.5188C77.9389 38.6084 77.9184 38.7059 77.92 38.8044V41.0503H78.2293C78.3636 41.0493 78.4972 41.031 78.6268 40.9958C78.7702 40.9579 78.9005 40.8816 79.0036 40.7751C79.2136 40.5778 79.3892 40.347 79.5234 40.0922C79.6363 39.8633 79.7344 39.6274 79.817 39.386C79.9131 39.1263 79.9989 38.8953 80.0769 38.7057C80.1859 38.4761 80.3396 38.2704 80.529 38.1008C80.6462 37.9865 80.7861 37.8981 80.9396 37.8411C81.1045 37.7737 81.2811 37.7393 81.4593 37.7399C81.7317 37.7252 81.9997 37.8132 82.2103 37.9865C82.2999 38.0617 82.3714 38.156 82.4195 38.2625C82.4677 38.3691 82.4912 38.485 82.4883 38.6019C82.4952 38.7201 82.4777 38.8384 82.4371 38.9496C82.3964 39.0608 82.3334 39.1624 82.2519 39.2484C82.1738 39.3246 82.081 39.3841 81.9791 39.4234C81.8773 39.4627 81.7685 39.4809 81.6594 39.4769C81.501 39.4752 81.3462 39.4293 81.2124 39.3444C81.0115 39.2014 80.8359 39.0259 80.6927 38.8252C80.5743 38.9561 80.4857 39.1111 80.4329 39.2795C80.3627 39.482 80.2951 39.6612 80.2354 39.8144C80.1425 40.0653 80.0213 40.3049 79.8742 40.5284C79.7621 40.6854 79.6252 40.823 79.4688 40.936V41.0217C79.8883 41.1222 80.2748 41.3287 80.5914 41.6215C80.8907 41.8994 81.1318 42.2338 81.3008 42.6055C81.3813 42.7743 81.4645 42.9534 81.5606 43.1404C81.6568 43.3273 81.7166 43.4909 81.7815 43.6233C81.8441 43.7808 81.9429 43.9214 82.07 44.0335C82.1386 44.0868 82.2172 44.1257 82.3012 44.1478C82.374 44.1634 82.4624 44.1763 82.5611 44.1919C82.6599 44.2075 82.756 44.2153 82.821 44.2231V44.5814Z" fill="#979797"/>
<path d="M6.78732 39.3788C6.78732 39.7651 6.70684 40.0984 6.54586 40.3785C6.38811 40.6553 6.16918 40.8807 5.88909 41.0545C5.59934 41.2348 5.26773 41.3652 4.89427 41.4457C4.52403 41.5262 4.10711 41.5664 3.6435 41.5664H3.08331V43.4933C3.08331 43.6092 3.10424 43.7106 3.14609 43.7975C3.19117 43.8812 3.27487 43.9489 3.39721 44.0004C3.4616 44.0261 3.56624 44.0535 3.71111 44.0825C3.85599 44.1114 3.97833 44.1308 4.07813 44.1404V44.5171H0.364466V44.1404C0.457831 44.1308 0.581781 44.1179 0.736316 44.1018C0.89085 44.0825 0.998703 44.0599 1.05987 44.0342C1.18543 43.9827 1.26753 43.9199 1.30616 43.8458C1.34802 43.7718 1.36894 43.6688 1.36894 43.5368V38.7027C1.36894 38.59 1.34963 38.4934 1.31099 38.413C1.27236 38.3293 1.18865 38.26 1.05987 38.2053C0.969728 38.1667 0.848997 38.1329 0.697682 38.1039C0.549586 38.0717 0.438514 38.0508 0.364466 38.0411V37.6644H4.14574C5.0311 37.6644 5.6927 37.8061 6.13055 38.0894C6.5684 38.3695 6.78732 38.7993 6.78732 39.3788ZM4.90393 39.6251C4.90393 39.11 4.7993 38.7285 4.59003 38.4806C4.38398 38.2295 4.01535 38.1039 3.48414 38.1039H3.08331V41.1125H3.28614C3.81414 41.1125 4.21496 40.9918 4.48862 40.7503C4.76549 40.5056 4.90393 40.1306 4.90393 39.6251ZM15.6634 44.5171H11.9594V44.1404C12.0399 44.134 12.1574 44.1243 12.3119 44.1114C12.4665 44.0986 12.5727 44.0792 12.6307 44.0535C12.7498 44.0052 12.8319 43.9424 12.877 43.8651C12.922 43.7847 12.9446 43.6832 12.9446 43.5609V41.1994H10.0181V43.5078C10.0181 43.6172 10.0406 43.7154 10.0857 43.8024C10.134 43.8893 10.2145 43.9569 10.3271 44.0052C10.3883 44.0309 10.4929 44.0583 10.641 44.0873C10.7891 44.1163 10.9099 44.134 11.0032 44.1404V44.5171H7.29922V44.1404C7.37971 44.1372 7.49722 44.1275 7.65175 44.1114C7.80951 44.0921 7.9238 44.0696 7.99463 44.0438C8.11053 44.002 8.19102 43.9392 8.23609 43.8555C8.28116 43.7686 8.3037 43.6671 8.3037 43.5512V38.7027C8.3037 38.59 8.28277 38.4951 8.24092 38.4178C8.20228 38.3405 8.12019 38.2729 7.99463 38.215C7.90126 38.1731 7.77892 38.1361 7.62761 38.1039C7.47629 38.0685 7.36683 38.0475 7.29922 38.0411V37.6644H11.0032V38.0411C10.9034 38.0475 10.7843 38.0636 10.6459 38.0894C10.5074 38.1152 10.4012 38.1393 10.3271 38.1618C10.2016 38.2037 10.1179 38.2713 10.076 38.3647C10.0374 38.4548 10.0181 38.5514 10.0181 38.6544V40.702H12.9446V38.7027C12.9446 38.59 12.9236 38.4951 12.8818 38.4178C12.8399 38.3405 12.7562 38.2729 12.6307 38.215C12.547 38.1763 12.4343 38.1409 12.2926 38.1087C12.1542 38.0733 12.0431 38.0508 11.9594 38.0411V37.6644H15.6634V38.0411C15.5604 38.0475 15.4445 38.062 15.3157 38.0846C15.1869 38.1039 15.071 38.1296 14.968 38.1618C14.8457 38.2037 14.7636 38.2697 14.7217 38.3598C14.6799 38.45 14.6589 38.5482 14.6589 38.6544V43.5078C14.6589 43.6237 14.6799 43.7219 14.7217 43.8024C14.7636 43.8829 14.8457 43.9505 14.968 44.0052C15.0453 44.0374 15.1564 44.0664 15.3012 44.0921C15.4493 44.1179 15.5701 44.134 15.6634 44.1404V44.5171ZM24.018 44.5171H21.3909C21.2782 44.1855 21.1655 43.8539 21.0528 43.5223C20.9401 43.1907 20.821 42.8832 20.6955 42.5999C20.6053 42.3906 20.5152 42.2136 20.425 42.0687C20.3381 41.9206 20.2303 41.795 20.1015 41.692C19.9791 41.589 19.831 41.5133 19.6572 41.465C19.4866 41.4135 19.2837 41.3878 19.0487 41.3878V43.5078C19.0487 43.6172 19.0712 43.7154 19.1163 43.8024C19.1646 43.8893 19.2451 43.9569 19.3578 44.0052C19.4189 44.0309 19.5236 44.0583 19.6717 44.0873C19.8198 44.1163 19.9405 44.134 20.0339 44.1404V44.5171H16.3299V44.1404C16.4103 44.1372 16.5279 44.1275 16.6824 44.1114C16.8401 44.0921 16.9544 44.0696 17.0253 44.0438C17.1412 44.002 17.2217 43.9392 17.2667 43.8555C17.3118 43.7686 17.3343 43.6671 17.3343 43.5512V38.7027C17.3343 38.59 17.3134 38.4951 17.2716 38.4178C17.2329 38.3405 17.1508 38.2729 17.0253 38.215C16.9319 38.1731 16.8096 38.1361 16.6582 38.1039C16.5069 38.0685 16.3975 38.0475 16.3299 38.0411V37.6644H20.0339V38.0411C19.9341 38.0475 19.8149 38.0636 19.6765 38.0894C19.5381 38.1152 19.4318 38.1393 19.3578 38.1618C19.2322 38.2037 19.1485 38.2713 19.1067 38.3647C19.068 38.4548 19.0487 38.5514 19.0487 38.6544V40.9338H19.3626C19.4914 40.9338 19.625 40.9161 19.7634 40.8807C19.9051 40.8421 20.0323 40.7664 20.1449 40.6537C20.3767 40.4251 20.5506 40.1949 20.6665 39.9631C20.7824 39.7281 20.8822 39.4883 20.9659 39.2436C21.0625 38.9731 21.1494 38.7446 21.2267 38.5578C21.3039 38.3679 21.4569 38.1618 21.6855 37.9397C21.7981 37.827 21.9366 37.7385 22.1008 37.6741C22.265 37.6065 22.4453 37.5727 22.6416 37.5727C22.9636 37.5727 23.2179 37.6548 23.4047 37.819C23.5914 37.9832 23.6848 38.1924 23.6848 38.4468C23.6848 38.7269 23.6059 38.9458 23.4481 39.1035C23.2904 39.2581 23.0891 39.3353 22.8445 39.3353C22.6899 39.3353 22.5386 39.2903 22.3905 39.2001C22.2456 39.11 22.0718 38.9361 21.869 38.6786C21.7724 38.7784 21.6871 38.9329 21.613 39.1422C21.5422 39.3482 21.4762 39.5285 21.415 39.683C21.2895 40.0018 21.1671 40.2448 21.048 40.4123C20.9289 40.5764 20.7921 40.7133 20.6375 40.8227V40.9097C21.0882 41.0288 21.4617 41.2252 21.7579 41.4988C22.0541 41.7725 22.2939 42.1057 22.4774 42.4985C22.5579 42.6691 22.64 42.851 22.7237 43.0442C22.8107 43.2341 22.8863 43.3967 22.9507 43.5319C23.0505 43.7412 23.1471 43.8796 23.2405 43.9472C23.337 44.0149 23.4159 44.0535 23.4771 44.0631C23.5511 44.0792 23.6413 44.0953 23.7475 44.1114C23.857 44.1243 23.9471 44.134 24.018 44.1404V44.5171ZM30.5712 38.4274C30.9093 38.7365 31.1765 39.11 31.3729 39.5478C31.5725 39.9857 31.6723 40.4847 31.6723 41.0449C31.6723 41.5439 31.5886 42.0188 31.4212 42.4695C31.2537 42.9202 31.0123 43.3082 30.6968 43.6333C30.3652 43.9714 29.9756 44.2354 29.5281 44.4253C29.0806 44.6121 28.5478 44.7054 27.9296 44.7054C27.4306 44.7054 26.959 44.6233 26.5147 44.4591C26.0704 44.2949 25.6792 44.0567 25.3412 43.7444C25.0063 43.4386 24.7407 43.0667 24.5444 42.6289C24.348 42.191 24.2498 41.7033 24.2498 41.1656C24.2498 40.6054 24.3447 40.0984 24.5347 39.6444C24.7279 39.1872 24.9919 38.7961 25.3267 38.4709C25.6583 38.1522 26.0511 37.9075 26.505 37.7369C26.9622 37.563 27.4483 37.4761 27.9634 37.4761C28.4753 37.4761 28.955 37.5598 29.4025 37.7272C29.8533 37.8946 30.2428 38.128 30.5712 38.4274ZM29.3301 43.3291C29.475 43.0361 29.5796 42.7045 29.644 42.3343C29.7084 41.964 29.7406 41.5455 29.7406 41.0787C29.7406 40.6827 29.7116 40.298 29.6537 39.9245C29.5989 39.5478 29.504 39.213 29.3687 38.92C29.2303 38.6271 29.0468 38.392 28.8182 38.215C28.5896 38.0379 28.3047 37.9494 27.9634 37.9494C27.3807 37.9494 26.938 38.2262 26.6354 38.78C26.3328 39.3305 26.1815 40.1096 26.1815 41.1173C26.1815 41.5455 26.2137 41.9496 26.278 42.3295C26.3456 42.7094 26.4503 43.041 26.5919 43.3243C26.7368 43.6108 26.9203 43.8346 27.1425 43.9955C27.3646 44.1533 27.6383 44.2322 27.9634 44.2322C28.2822 44.2322 28.5558 44.1517 28.7844 43.9907C29.013 43.8297 29.1949 43.6092 29.3301 43.3291Z" fill="#979797"/>
<path d="M56.0773 17.2787C53.2512 17.422 50.4179 17.3158 47.6104 16.9616C41.5625 16.2759 36.231 15.8473 31.59 16.9016C29.5247 17.3431 27.554 18.1469 25.7695 19.2758C26.04 20.3751 26.4268 21.4425 26.9233 22.46C28.2961 21.6097 29.7779 20.9494 31.3284 20.4972C34.6311 19.5201 38.1654 19.4301 41.8027 19.7301C45.8732 20.0644 49.8751 20.5486 54.1858 20.3086C54.7777 20.2801 55.361 20.2329 55.9358 20.1672C56.2278 19.2111 56.4289 18.2297 56.5363 17.2358L56.1074 17.2701L56.0773 17.2787Z" fill="#979797"/>
<path d="M49.5581 25.5245C50.8894 25.494 52.2124 25.307 53.4999 24.9674C54.2867 23.9105 54.9366 22.7585 55.4344 21.5389C54.8082 21.6546 54.1476 21.7531 53.5128 21.8346C48.7646 22.426 43.6475 20.8532 38.9294 21.6031C36.5421 21.9286 34.2584 22.7854 32.2467 24.1102C31.3079 24.7563 30.4659 25.5327 29.7461 26.4159C30.6571 27.2821 31.6212 28.0908 32.6328 28.8373C34.5929 26.733 37.4882 25.2802 42.0691 25.0745C44.8099 24.9502 46.9159 25.5759 49.541 25.5031L49.5581 25.5245Z" fill="#979797"/>
<path d="M49.8249 26.6903C46.8825 26.9903 44.8751 26.3903 41.7783 27.3888C40.421 27.7916 39.1865 28.5284 38.1882 29.5316C37.8299 29.9224 37.519 30.3539 37.2617 30.8173C39.9831 31.4772 42.8319 31.3954 45.5109 30.5806C48.1899 29.7657 50.601 28.2476 52.4928 26.1846C51.6196 26.4288 50.727 26.598 49.8249 26.6903Z" fill="#979797"/>
<path d="M42.3027 9.26041C41.5864 9.26041 34.7365 12.7618 32.6348 13.8246C38.2623 13.3661 42.5644 14.026 47.8573 15.0803C49.5044 15.406 51.2887 15.736 53.1116 15.9374C50.3451 13.9189 43.0276 9.24756 42.307 9.24756L42.3027 9.26041Z" fill="#979797"/>
<path d="M54.8732 8.46761C53.2979 5.41584 50.7609 2.96714 47.6539 1.49966C44.5469 0.0321783 41.0427 -0.372452 37.6826 0.348254C34.3225 1.06896 31.2933 2.87491 29.0629 5.48722C26.8324 8.09953 25.5247 11.3729 25.3418 14.8018C26.0324 14.6432 27.4221 14.3732 27.4221 14.3732C27.4221 14.3732 38.0508 5.17624 40.144 4.27626C40.3791 4.13858 40.6358 4.0415 40.9032 3.98912C41.1719 4.04407 41.4298 4.1425 41.6667 4.28054C43.451 5.17624 50.3138 12.4618 50.3138 12.4618C50.1122 12.2818 41.7353 5.2791 40.9118 5.21053C39.9767 5.27052 30.7076 13.4132 30.0299 14.0346C30.2959 14.0089 30.5661 13.9918 30.8363 13.9704C33.3412 12.6461 37.4846 10.4647 41.6409 8.56189C41.8515 8.44818 42.0841 8.38095 42.3229 8.36475C42.5385 8.37516 42.7474 8.44325 42.9277 8.56189C42.9277 8.56189 53.342 15.0503 54.9976 16.126C55.5338 16.1646 56.0742 16.1903 56.6061 16.1989C56.7069 13.5229 56.116 10.8662 54.8904 8.48475L54.8732 8.46761Z" fill="#979797"/>
</svg>
