<svg width="136" height="77" viewBox="0 0 136 77" fill="none" xmlns="http://www.w3.org/2000/svg">
<g clip-path="url(#clip0_205_131)">
<path d="M68.5886 73.0375H61.8423V72.4419C62.2646 72.4416 62.6851 72.3858 63.0929 72.276C63.2801 72.1995 63.3736 72.1016 63.3736 71.974C63.3596 71.861 63.325 71.7514 63.2715 71.6508C63.1886 71.475 63.0948 71.3045 62.9908 71.1403C62.8122 70.834 62.5654 70.4512 62.2634 69.9918L61.3149 68.5711C60.2259 69.8472 59.5326 70.6724 59.2391 71.085C59.0377 71.3266 58.8924 71.6099 58.8137 71.9145C58.8105 71.9773 58.8222 72.0399 58.8477 72.0974C58.8895 72.1659 58.9544 72.2172 59.0306 72.242C59.1488 72.2993 59.275 72.3381 59.405 72.3569C59.6111 72.4003 59.82 72.4287 60.0302 72.4419V73.0375H55.7383V72.4419C55.9171 72.4335 56.0949 72.4107 56.27 72.3739C56.4049 72.3396 56.5371 72.2955 56.6656 72.242C56.9504 72.1001 57.2116 71.915 57.4398 71.6933C57.6968 71.4568 57.9396 71.2054 58.1671 70.9404C58.5287 70.515 58.9413 70.0897 59.3964 69.5452C59.8516 69.0007 60.3323 68.469 60.8384 67.8862C60.362 67.1631 59.8814 66.4613 59.405 65.7807L58.1884 64.0409C58.0074 63.78 57.7993 63.539 57.5674 63.322C57.3465 63.1012 57.0832 62.9276 56.7932 62.8116C56.6459 62.7493 56.4937 62.6995 56.3381 62.6627C56.1401 62.6229 55.9397 62.5959 55.7383 62.5819V61.9736H62.4974V62.5819C62.1051 62.5882 61.7145 62.6352 61.3319 62.7223C61.0809 62.7988 60.9533 62.9052 60.9533 63.0498C60.9597 63.1457 60.9843 63.2395 61.0256 63.3263C61.1135 63.5075 61.2115 63.6836 61.3191 63.8538C61.4467 64.0622 61.6424 64.3642 61.9019 64.764L62.7951 66.1295C63.7735 64.9597 64.3903 64.1941 64.6455 63.841C64.8266 63.6319 64.9549 63.3825 65.0198 63.1136C65.0216 63.0418 65.0019 62.971 64.9632 62.9104C64.9246 62.8498 64.8688 62.8021 64.8029 62.7733C64.4744 62.6629 64.1323 62.5985 63.7862 62.5819V61.9736H68.0952V62.5819C67.9444 62.5948 67.795 62.6204 67.6486 62.6585C67.5033 62.6974 67.3611 62.7471 67.2232 62.8074C66.9246 62.9374 66.651 63.1188 66.415 63.3433C66.1938 63.5603 65.9556 63.807 65.6961 64.092C65.3091 64.5173 64.9432 64.9427 64.5944 65.3383L63.3183 66.8186C63.9479 67.7629 64.4838 68.5583 64.9305 69.1964L66.2066 70.9957C66.3822 71.2558 66.5846 71.4968 66.8106 71.7146C67.0293 71.9381 67.2913 72.1146 67.5805 72.2335C67.7193 72.2865 67.8614 72.3306 68.0059 72.3654C68.2151 72.4153 68.4289 72.4438 68.6439 72.4504V73.0375H68.5886Z" fill="#5052FE"/>
<path d="M79.3256 63.2077C79.8773 63.7151 80.3189 64.3304 80.623 65.0155C80.9538 65.7788 81.1177 66.604 81.1037 67.4358C81.1065 68.2194 80.9697 68.9973 80.6996 69.7328C80.4457 70.4346 80.0471 71.0751 79.5298 71.6129C78.991 72.1593 78.3491 72.593 77.6412 72.8891C76.8191 73.21 75.9415 73.3647 75.0592 73.3442C74.2817 73.3489 73.5096 73.215 72.7792 72.9486C72.0772 72.6907 71.4327 72.2976 70.8821 71.7916C70.3366 71.2867 69.9021 70.674 69.606 69.9923C69.2799 69.2471 69.1174 68.4406 69.1296 67.6273C69.1174 66.7849 69.2751 65.9487 69.5932 65.1686C69.8759 64.4626 70.3031 63.8236 70.8473 63.2925C71.3916 62.7614 72.041 62.35 72.7537 62.0847C73.5063 61.8042 74.3028 61.6602 75.106 61.6593C75.8995 61.6538 76.6876 61.7907 77.4327 62.0634C78.1279 62.3157 78.7678 62.6999 79.3171 63.1949L79.3256 63.2077ZM77.3221 71.128C77.5671 70.6191 77.7376 70.0776 77.8283 69.5201C77.9398 68.8482 77.9924 68.1679 77.9857 67.4869C77.9881 66.8678 77.9455 66.2494 77.8581 65.6365C77.7795 65.0756 77.622 64.5285 77.3902 64.0116C77.1914 63.5671 76.8878 63.1774 76.5054 62.8759C76.1067 62.5804 75.6189 62.4303 75.123 62.4505C74.6775 62.4473 74.2404 62.5718 73.8635 62.8092C73.4865 63.0467 73.1856 63.3872 72.9962 63.7904C72.5112 64.688 72.2645 65.947 72.2645 67.5762C72.261 68.2331 72.3136 68.8892 72.4219 69.5372C72.5109 70.095 72.6814 70.6368 72.9281 71.145C73.1303 71.572 73.4341 71.943 73.8129 72.2255C74.2089 72.4794 74.6695 72.6144 75.14 72.6144C75.6105 72.6144 76.0711 72.4794 76.4672 72.2255C76.8472 71.9508 77.1504 71.5832 77.3477 71.1578L77.3221 71.128Z" fill="#5052FE"/>
<path d="M85.0878 62.6797L84.5306 62.5819V61.9736H94.4459V62.5819C94.2574 62.5924 94.0699 62.6151 93.8844 62.65C93.696 62.6797 93.5098 62.7224 93.3272 62.7776C93.2415 62.8003 93.1616 62.8408 93.0927 62.8965C93.0238 62.9522 92.9675 63.0219 92.9273 63.1009C92.8581 63.2485 92.8232 63.4099 92.8252 63.573V71.4083C92.8205 71.573 92.8555 71.7364 92.9273 71.8847C93.0181 72.0374 93.1596 72.1533 93.3272 72.2122C93.502 72.2773 93.683 72.3243 93.8674 72.3526C94.0583 72.3937 94.2515 72.4236 94.4459 72.4419V73.0375H88.4397V72.4419L89.0267 72.3951C89.2062 72.3903 89.384 72.3588 89.5542 72.3016C89.7171 72.2477 89.8576 72.1415 89.954 71.9996C90.0311 71.8469 90.0677 71.677 90.0603 71.5061V62.7308H87.4188C87.3808 64.3483 87.1928 65.9589 86.8573 67.5417C86.6247 68.6696 86.2562 69.7651 85.7599 70.8043C85.4231 71.5343 84.936 72.1851 84.3306 72.7142C83.9369 73.058 83.4402 73.2615 82.9184 73.2927C82.6276 73.3018 82.3381 73.2511 82.0677 73.1438C81.8726 73.0652 81.6991 72.9413 81.5615 72.7822C81.4405 72.6401 81.3559 72.4708 81.3148 72.2888C81.2747 72.123 81.2533 71.9532 81.251 71.7826C81.2373 71.5703 81.2715 71.3577 81.351 71.1604C81.4305 70.9631 81.5533 70.7861 81.7104 70.6426C82.0057 70.3848 82.386 70.2453 82.778 70.2513C83.0753 70.2549 83.3639 70.3516 83.6033 70.5278C83.8967 70.7391 84.1624 70.9863 84.3944 71.2637C84.6307 70.8687 84.8396 70.4579 85.0197 70.0344C85.2579 69.4964 85.4569 68.942 85.6152 68.3754C85.8124 67.7251 85.9687 67.0631 86.0832 66.3932C86.2047 65.6695 86.2616 64.9364 86.2533 64.2026C86.2622 63.9162 86.2321 63.6301 86.164 63.3518C86.1388 63.2442 86.0893 63.1437 86.0193 63.0582C85.9492 62.9726 85.8605 62.9043 85.7599 62.8584C85.5472 62.7761 85.3261 62.7176 85.1006 62.684L85.0878 62.6797Z" fill="#5052FE"/>
<path d="M110.734 73.0375H104.737V72.4419C104.915 72.4419 105.132 72.4164 105.387 72.3654C105.568 72.351 105.746 72.3109 105.915 72.2463C106.088 72.1924 106.238 72.0814 106.34 71.9315C106.43 71.7737 106.472 71.5937 106.464 71.4125V63.1349L102.648 72.8673H101.678C101.631 72.6972 101.512 72.3569 101.329 71.8507C101.147 71.3445 100.998 70.9276 100.904 70.6214L98.1051 63.02V69.7409C98.0908 70.2347 98.1337 70.7286 98.2327 71.2126C98.294 71.4964 98.4428 71.7538 98.6581 71.9485C98.8696 72.094 99.1061 72.1993 99.3557 72.259C99.5857 72.3361 99.822 72.393 100.062 72.4292V73.0375H95.2637V72.4419C95.3955 72.4419 95.604 72.3909 95.8975 72.3356C96.1569 72.2989 96.4044 72.2029 96.6206 72.0549C96.854 71.8754 97.0069 71.6108 97.046 71.319C97.1346 70.8307 97.1731 70.3347 97.1608 69.8387V64.3599C97.1712 64.0709 97.1279 63.7825 97.0332 63.5092C96.9602 63.303 96.8304 63.1217 96.6589 62.986C96.4731 62.8336 96.2548 62.7259 96.0208 62.6712C95.802 62.6252 95.5803 62.5939 95.3573 62.5777V61.9736H100.462L103.188 69.2644L105.49 63.3476C105.576 63.092 105.65 62.8322 105.711 62.5691C105.766 62.3741 105.806 62.175 105.83 61.9736H110.73V62.5819C110.547 62.5949 110.365 62.6204 110.186 62.6585C110.009 62.688 109.834 62.7293 109.662 62.7818C109.577 62.8038 109.497 62.8436 109.428 62.8986C109.359 62.9536 109.303 63.0225 109.263 63.1009C109.197 63.254 109.163 63.4191 109.165 63.5858V71.4083C109.161 71.5725 109.194 71.7354 109.263 71.8847C109.357 72.0339 109.497 72.1487 109.662 72.2122C109.827 72.2761 109.998 72.3203 110.173 72.3441C110.411 72.3866 110.598 72.4164 110.726 72.4292V73.0375H110.734Z" fill="#5052FE"/>
<path d="M117.673 73.3439C116.897 73.3498 116.126 73.2158 115.397 72.9483C114.709 72.6996 114.08 72.3099 113.551 71.804C113.014 71.2958 112.591 70.6778 112.314 69.992C111.721 68.4592 111.721 66.7606 112.314 65.2279C112.604 64.5131 113.038 63.8659 113.59 63.3265C114.132 62.7902 114.781 62.3743 115.495 62.1057C116.257 61.8162 117.067 61.6719 117.882 61.6803C118.448 61.6721 119.013 61.748 119.558 61.9057C119.998 62.0325 120.426 62.202 120.834 62.4119L121.319 61.9866H121.995L122.067 66.0275H121.378C121.115 65.0293 120.637 64.1003 119.979 63.3052C119.726 63.0299 119.417 62.8116 119.073 62.6649C118.729 62.5182 118.358 62.4465 117.984 62.4545C117.529 62.4414 117.079 62.556 116.686 62.7853C116.293 63.0146 115.972 63.3494 115.759 63.7518C115.249 64.6026 114.993 65.8106 114.993 67.376C114.977 68.136 115.066 68.8946 115.257 69.6304C115.392 70.1691 115.622 70.6791 115.938 71.1362C116.217 71.5045 116.584 71.7969 117.005 71.987C117.434 72.1767 117.898 72.271 118.367 72.2634C119.06 72.2742 119.74 72.0674 120.31 71.6722C120.953 71.1943 121.483 70.5816 121.863 69.8771L122.535 70.3025C122.325 70.7387 122.068 71.1509 121.769 71.5318C121.491 71.8825 121.161 72.1893 120.791 72.4421C120.373 72.7322 119.914 72.9587 119.43 73.1142C118.861 73.2866 118.268 73.3685 117.673 73.3566V73.3439Z" fill="#5052FE"/>
<path d="M135.707 73.0377H131.453C131.271 72.5017 131.092 71.9658 130.909 71.4341C130.726 70.9023 130.535 70.4004 130.33 69.941C130.206 69.6489 130.064 69.3648 129.905 69.0903C129.767 68.8591 129.588 68.6545 129.378 68.4863C129.167 68.3151 128.924 68.1878 128.663 68.1119C128.342 68.0299 128.012 67.9913 127.68 67.9971V71.4C127.676 71.5657 127.714 71.7296 127.791 71.8764C127.878 72.0273 128.015 72.1431 128.178 72.204C128.342 72.2636 128.512 72.3077 128.684 72.3358C128.878 72.3749 129.074 72.4033 129.271 72.4209V73.0377H123.295V72.4422C123.423 72.4422 123.614 72.4252 123.869 72.3911C124.056 72.3795 124.24 72.3438 124.418 72.2848C124.583 72.2372 124.723 72.1275 124.809 71.9785C124.884 71.8279 124.92 71.6615 124.916 71.4936V63.6541C124.923 63.4951 124.889 63.3369 124.818 63.1947C124.722 63.0451 124.583 62.9291 124.418 62.8629C124.226 62.7854 124.029 62.7242 123.827 62.68C123.58 62.6289 123.401 62.5949 123.295 62.5822V61.9781H129.276V62.5822C129.114 62.5822 128.923 62.6204 128.697 62.6587C128.472 62.697 128.301 62.7438 128.182 62.7778C128.096 62.8 128.015 62.8408 127.946 62.8973C127.877 62.9539 127.821 63.0249 127.783 63.1054C127.716 63.2521 127.682 63.412 127.685 63.5733V67.2527H128.191C128.411 67.2511 128.63 67.2211 128.842 67.1634C129.076 67.1013 129.29 66.9763 129.458 66.8018C129.802 66.4786 130.09 66.1006 130.309 65.6831C130.494 65.3081 130.655 64.9216 130.79 64.5261C130.947 64.1007 131.088 63.7221 131.215 63.4116C131.394 63.0354 131.645 62.6984 131.955 62.4205C132.147 62.2333 132.376 62.0884 132.627 61.9951C132.897 61.8847 133.187 61.8283 133.478 61.8293C133.924 61.8052 134.363 61.9494 134.708 62.2334C134.854 62.3565 134.971 62.511 135.05 62.6855C135.129 62.86 135.167 63.0501 135.163 63.2415C135.174 63.4351 135.145 63.6289 135.079 63.8111C135.012 63.9933 134.909 64.1599 134.776 64.3006C134.648 64.4255 134.496 64.5231 134.329 64.5874C134.162 64.6518 133.984 64.6815 133.806 64.675C133.546 64.6723 133.293 64.5971 133.074 64.458C132.745 64.2237 132.458 63.9362 132.223 63.6073C132.03 63.8218 131.884 64.0758 131.798 64.3517C131.683 64.6835 131.573 64.977 131.475 65.2279C131.323 65.6391 131.124 66.0315 130.883 66.3977C130.7 66.6549 130.476 66.8804 130.22 67.0655V67.2059C130.907 67.3705 131.539 67.7088 132.058 68.1885C132.547 68.6437 132.942 69.1917 133.219 69.8006C133.351 70.0771 133.487 70.3706 133.644 70.6769C133.802 70.9832 133.899 71.2512 134.006 71.4681C134.108 71.7261 134.27 71.9564 134.478 72.1402C134.59 72.2274 134.719 72.2911 134.856 72.3273C134.976 72.3529 135.12 72.3741 135.282 72.3996C135.443 72.4252 135.601 72.4379 135.707 72.4507V73.0377Z" fill="#5052FE"/>
<path d="M11.2447 64.777C11.2447 65.4094 11.1129 65.9549 10.8494 66.4134C10.5912 66.8666 10.2328 67.2355 9.77435 67.5201C9.30005 67.8152 8.75724 68.0286 8.14591 68.1604C7.53986 68.2921 6.85739 68.358 6.09851 68.358H5.18153V71.5121C5.18153 71.7018 5.21578 71.8678 5.28429 72.0101C5.35807 72.1472 5.49509 72.2578 5.69535 72.3422C5.80075 72.3843 5.97203 72.4291 6.20918 72.4765C6.44633 72.524 6.64659 72.5556 6.80996 72.5714V73.188H0.730994V72.5714C0.883825 72.5556 1.08672 72.5345 1.33968 72.5082C1.59264 72.4765 1.76919 72.4396 1.86932 72.3975C2.07485 72.3132 2.20923 72.2104 2.27247 72.0892C2.34099 71.968 2.37524 71.7993 2.37524 71.5833V63.6703C2.37524 63.4859 2.34362 63.3278 2.28038 63.196C2.21714 63.059 2.08012 62.9457 1.86932 62.8561C1.72176 62.7929 1.52413 62.7375 1.27644 62.6901C1.03402 62.6374 0.852204 62.6032 0.730994 62.5873V61.9707H6.92063C8.36989 61.9707 9.45288 62.2026 10.1696 62.6664C10.8863 63.1249 11.2447 63.8284 11.2447 64.777ZM8.16172 65.1802C8.16172 64.337 7.99045 63.7125 7.6479 63.3067C7.31061 62.8956 6.7072 62.6901 5.83764 62.6901H5.18153V67.6149H5.51354C6.37782 67.6149 7.03394 67.4173 7.48189 67.0221C7.93511 66.6215 8.16172 66.0076 8.16172 65.1802ZM25.7741 73.188H19.711V72.5714C19.8427 72.5609 20.0351 72.545 20.288 72.524C20.541 72.5029 20.7149 72.4713 20.8098 72.4291C21.0048 72.3501 21.1391 72.2473 21.2129 72.1208C21.2867 71.9891 21.3236 71.8231 21.3236 71.6228V67.7572H16.5331V71.5358C16.5331 71.715 16.57 71.8758 16.6438 72.018C16.7229 72.1603 16.8546 72.271 17.0391 72.3501C17.1392 72.3922 17.3105 72.437 17.5529 72.4844C17.7953 72.5319 17.9929 72.5609 18.1458 72.5714V73.188H12.0826V72.5714C12.2144 72.5661 12.4067 72.5503 12.6597 72.524C12.9179 72.4923 13.105 72.4555 13.2209 72.4133C13.4107 72.3448 13.5424 72.242 13.6162 72.105C13.69 71.9627 13.7269 71.7967 13.7269 71.607V63.6703C13.7269 63.4859 13.6926 63.3304 13.6241 63.2039C13.5609 63.0775 13.4265 62.9668 13.2209 62.8719C13.0681 62.8034 12.8679 62.7428 12.6202 62.6901C12.3725 62.6321 12.1933 62.5979 12.0826 62.5873V61.9707H18.1458V62.5873C17.9824 62.5979 17.7874 62.6242 17.5608 62.6664C17.3342 62.7086 17.1603 62.7481 17.0391 62.785C16.8335 62.8535 16.6965 62.9641 16.628 63.117C16.5648 63.2645 16.5331 63.4226 16.5331 63.5913V66.943H21.3236V63.6703C21.3236 63.4859 21.2893 63.3304 21.2208 63.2039C21.1523 63.0775 21.0153 62.9668 20.8098 62.8719C20.6728 62.8087 20.4883 62.7507 20.2564 62.698C20.0298 62.64 19.848 62.6032 19.711 62.5873V61.9707H25.7741V62.5873C25.6055 62.5979 25.4158 62.6216 25.205 62.6585C24.9942 62.6901 24.8044 62.7323 24.6358 62.785C24.4355 62.8535 24.3012 62.9615 24.2326 63.1091C24.1641 63.2566 24.1299 63.4174 24.1299 63.5913V71.5358C24.1299 71.7256 24.1641 71.8863 24.2326 72.018C24.3012 72.1498 24.4355 72.2605 24.6358 72.3501C24.7623 72.4028 24.9441 72.4502 25.1813 72.4923C25.4237 72.5345 25.6213 72.5609 25.7741 72.5714V73.188ZM39.4498 73.188H35.1495C34.965 72.6452 34.7806 72.1024 34.5961 71.5596C34.4117 71.0167 34.2167 70.5135 34.0112 70.0497C33.8636 69.7071 33.716 69.4173 33.5685 69.1801C33.4262 68.9377 33.2497 68.7322 33.0389 68.5635C32.8386 68.3949 32.5962 68.2711 32.3116 68.192C32.0323 68.1077 31.7003 68.0655 31.3156 68.0655V71.5358C31.3156 71.715 31.3524 71.8758 31.4262 72.018C31.5053 72.1603 31.637 72.271 31.8215 72.3501C31.9216 72.3922 32.0929 72.437 32.3353 72.4844C32.5777 72.5319 32.7754 72.5609 32.9282 72.5714V73.188H26.865V72.5714C26.9968 72.5661 27.1891 72.5503 27.4421 72.524C27.7003 72.4923 27.8874 72.4555 28.0033 72.4133C28.1931 72.3448 28.3248 72.242 28.3986 72.105C28.4724 71.9627 28.5093 71.7967 28.5093 71.607V63.6703C28.5093 63.4859 28.475 63.3304 28.4065 63.2039C28.3433 63.0775 28.2089 62.9668 28.0033 62.8719C27.8505 62.8034 27.6503 62.7428 27.4026 62.6901C27.1549 62.6321 26.9757 62.5979 26.865 62.5873V61.9707H32.9282V62.5873C32.7648 62.5979 32.5698 62.6242 32.3432 62.6664C32.1166 62.7086 31.9427 62.7481 31.8215 62.785C31.6159 62.8535 31.4789 62.9641 31.4104 63.117C31.3472 63.2645 31.3156 63.4226 31.3156 63.5913V67.3225H31.8294C32.0402 67.3225 32.2589 67.2935 32.4855 67.2355C32.7174 67.1723 32.9255 67.0484 33.11 66.864C33.4894 66.4898 33.774 66.113 33.9637 65.7335C34.1535 65.3488 34.3168 64.9562 34.4539 64.5557C34.612 64.113 34.7542 63.7388 34.8807 63.4332C35.0072 63.1222 35.2575 62.785 35.6317 62.4213C35.8162 62.2369 36.0428 62.092 36.3115 61.9866C36.5803 61.8759 36.8754 61.8206 37.1969 61.8206C37.7239 61.8206 38.1402 61.9549 38.4459 62.2237C38.7516 62.4925 38.9044 62.835 38.9044 63.2514C38.9044 63.7099 38.7753 64.0682 38.517 64.3264C38.2588 64.5794 37.9294 64.7059 37.5289 64.7059C37.2759 64.7059 37.0283 64.6321 36.7858 64.4845C36.5487 64.337 36.2641 64.0524 35.9321 63.6308C35.774 63.7942 35.6343 64.0471 35.5131 64.3897C35.3972 64.727 35.2892 65.0221 35.189 65.2751C34.9835 65.7968 34.7832 66.1947 34.5882 66.4687C34.3932 66.7375 34.1693 66.9615 33.9163 67.1406V67.2829C34.6541 67.4779 35.2654 67.7994 35.7503 68.2473C36.2351 68.6953 36.6277 69.2407 36.9281 69.8837C37.0599 70.163 37.1943 70.4608 37.3313 70.777C37.4736 71.0879 37.5974 71.354 37.7028 71.5754C37.8662 71.9179 38.0243 72.1445 38.1771 72.2552C38.3352 72.3659 38.4643 72.4291 38.5645 72.4449C38.6857 72.4713 38.8332 72.4976 39.0072 72.524C39.1863 72.545 39.3339 72.5609 39.4498 72.5714V73.188ZM50.177 63.2197C50.7303 63.7257 51.1677 64.337 51.4892 65.0537C51.8159 65.7704 51.9793 66.5873 51.9793 67.5043C51.9793 68.3211 51.8423 69.0985 51.5682 69.8363C51.2942 70.5741 50.899 71.2091 50.3825 71.7414C49.8397 72.2947 49.202 72.7269 48.4695 73.0378C47.7369 73.3435 46.8648 73.4963 45.8529 73.4963C45.0361 73.4963 44.264 73.3619 43.5367 73.0931C42.8095 72.8244 42.1692 72.4344 41.6158 71.9232C41.0677 71.4225 40.633 70.8138 40.3115 70.0971C39.99 69.3804 39.8293 68.582 39.8293 67.7019C39.8293 66.7849 39.9847 65.9549 40.2957 65.2118C40.6119 64.4635 41.044 63.8232 41.5921 63.2909C42.1349 62.7692 42.7779 62.3686 43.5209 62.0893C44.2693 61.8047 45.065 61.6625 45.9082 61.6625C46.7462 61.6625 47.5314 61.7995 48.2639 62.0735C49.0017 62.3476 49.6394 62.7296 50.177 63.2197ZM48.1454 71.2434C48.3825 70.7638 48.5538 70.221 48.6592 69.6149C48.7646 69.0089 48.8173 68.3238 48.8173 67.5596C48.8173 66.9114 48.7699 66.2816 48.675 65.6703C48.5854 65.0537 48.4299 64.5056 48.2086 64.0261C47.982 63.5465 47.6816 63.1618 47.3074 62.8719C46.9333 62.5821 46.4669 62.4371 45.9082 62.4371C44.9544 62.4371 44.2297 62.8904 43.7344 63.7968C43.239 64.698 42.9913 65.9733 42.9913 67.6228C42.9913 68.3238 43.044 68.9851 43.1494 69.607C43.2601 70.2289 43.4313 70.7717 43.6632 71.2354C43.9004 71.7045 44.2008 72.0707 44.5644 72.3342C44.928 72.5925 45.376 72.7216 45.9082 72.7216C46.43 72.7216 46.8779 72.5898 47.2521 72.3263C47.6263 72.0628 47.924 71.7018 48.1454 71.2434Z" fill="#5052FE"/>
</g>
<path d="M91.9278 28.308C87.3016 28.5427 82.6637 28.3689 78.0681 27.7884C68.1683 26.6651 59.441 25.9629 51.8441 27.6901C48.4633 28.4134 45.2375 29.7304 42.3164 31.5799C42.7591 33.3808 43.3923 35.1296 44.2051 36.7966C46.4521 35.4034 48.8778 34.3216 51.4158 33.5809C56.8221 31.9801 62.6075 31.8326 68.5614 32.3241C75.2245 32.8718 81.7752 33.6651 88.8315 33.272C89.8004 33.2251 90.7553 33.1479 91.6961 33.0403C92.1741 31.4739 92.5032 29.866 92.6791 28.2378L91.9769 28.294L91.9278 28.308Z" fill="#5052FE"/>
<path d="M81.2568 41.8165C83.436 41.7665 85.6017 41.4601 87.7093 40.9037C88.9971 39.1722 90.061 37.285 90.8758 35.2868C89.8507 35.4764 88.7695 35.6378 87.7303 35.7713C79.9579 36.7402 71.5817 34.1634 63.8584 35.3921C59.9507 35.9253 56.2125 37.329 52.9195 39.4995C51.3827 40.558 50.0044 41.8298 48.8262 43.2769C50.3174 44.696 51.8955 46.0209 53.5514 47.2438C56.7601 43.7964 61.4993 41.4162 68.9979 41.0792C73.4844 40.8756 76.9318 41.9007 81.2287 41.7813L81.2568 41.8165Z" fill="#5052FE"/>
<path d="M81.6938 43.7264C76.8773 44.2179 73.5914 43.235 68.5222 44.8709C66.3003 45.5308 64.2797 46.7378 62.6455 48.3815C62.059 49.0216 61.55 49.7286 61.1289 50.4878C65.5836 51.5688 70.2468 51.4349 74.6321 50.0999C79.0174 48.7649 82.9643 46.2778 86.061 42.8979C84.6315 43.298 83.1705 43.5752 81.6938 43.7264Z" fill="#5052FE"/>
<path d="M69.3803 15.1715C68.2078 15.1715 56.995 20.9077 53.5547 22.649C62.7664 21.8977 69.8086 22.979 78.4727 24.7062C81.1688 25.2398 84.0896 25.7804 87.0736 26.1104C82.545 22.8034 70.5669 15.1504 69.3874 15.1504L69.3803 15.1715Z" fill="#5052FE"/>
<path d="M89.9578 13.8725C87.3791 8.87275 83.2261 4.86106 78.1402 2.45689C73.0543 0.0527177 67.3183 -0.610187 61.8181 0.570544C56.3179 1.75127 51.3594 4.70996 47.7083 8.9897C44.0572 13.2694 41.9166 18.6322 41.6172 24.2497C42.7476 23.9899 45.0224 23.5476 45.0224 23.5476C45.0224 23.5476 62.4208 8.48022 65.8471 7.00578C66.232 6.78022 66.6521 6.62118 67.0899 6.53537C67.5297 6.62538 67.9519 6.78665 68.3397 7.0128C71.2605 8.48022 82.4943 20.4162 82.4943 20.4162C82.1643 20.1213 68.452 8.64873 67.1039 8.53639C65.5733 8.63469 50.4006 21.9749 49.2913 22.9929C49.7266 22.9508 50.1689 22.9227 50.6113 22.8876C54.7116 20.7181 61.494 17.1443 68.2975 14.0269C68.6423 13.8406 69.0229 13.7305 69.4139 13.704C69.7669 13.721 70.1088 13.8326 70.4039 14.0269C70.4039 14.0269 87.4512 24.6569 90.1614 26.4192C91.039 26.4824 91.9237 26.5246 92.7943 26.5386C92.9593 22.1546 91.9921 17.802 89.9858 13.9005L89.9578 13.8725Z" fill="#5052FE"/>
<defs>
<clipPath id="clip0_205_131">
<rect width="135.864" height="18.812" fill="white" transform="translate(0.134766 58.188)"/>
</clipPath>
</defs>
</svg>
